<svg width="1374" height="989" xmlns="http://www.w3.org/2000/svg" xmlns:xlink="http://www.w3.org/1999/xlink" xml:space="preserve" overflow="hidden"><g transform="translate(-2742 -322)"><path d="M2833.5 698.092C2939.24 880.199 3002.99 1080.63 3039.63 1064.6 3076.28 1048.56 3012.91 604.939 3053.38 601.885 3093.84 598.83 3233.55 1040.16 3282.42 1046.27 3331.28 1052.38 3301.5 645.407 3346.55 638.535 3391.59 631.663 3511.45 1001.22 3552.68 1005.04 3593.91 1008.86 3553.44 659.915 3593.91 661.442 3634.37 662.969 3757.29 1027.18 3795.46 1014.2 3833.63 1001.22 3778.67 588.141 3822.95 583.559 3867.23 578.978 3932.12 840.113 4024.5 1009.62" stroke="#FAFFB9" stroke-width="183.333" stroke-linecap="round" stroke-miterlimit="8" fill="none" fill-rule="evenodd"/><path d="M3999.84 641.654 3999.84 641.654C3971.1 687.537 3910.6 701.428 3864.71 672.681L3711.25 576.527 3815.35 410.37 3968.82 506.523C4014.7 535.271 4028.59 595.771 3999.84 641.654Z" fill="#8FBB99" fill-rule="evenodd"/><path d="M3944.44 537.98 3944.44 537.98C3940.24 544.683 3931.4 546.712 3924.7 542.513L3804.92 467.463 3820.12 443.191 3939.91 518.241C3946.61 522.44 3948.64 531.278 3944.44 537.98Z" fill="#FFFFFF" fill-rule="evenodd"/><path d="M3564.31 368.776 3564.31 368.776C3593.06 322.893 3653.56 309.002 3699.44 337.749L3852.91 433.903 3748.81 600.06 3595.34 503.907C3549.45 475.159 3535.56 414.659 3564.31 368.776Z" fill="#81E979" fill-rule="evenodd"/><path d="M3676.05 369.824 3676.05 369.824C3680.25 363.122 3689.09 361.093 3695.79 365.292L3815.57 440.341 3800.37 464.613 3680.58 389.564C3673.88 385.364 3671.85 376.527 3676.05 369.824Z" fill="#FFFFFF" fill-rule="evenodd"/><path d="M2976.51 602.742 2976.51 620.892 2958.36 620.892 2958.36 639.702 2941.2 639.702 2941.2 673.032 2995.32 673.032 2995.32 602.742ZM2978.49 503.082 3051.09 503.082 3051.09 519.252 3068.25 519.252 3068.25 671.712 3090.36 671.712 3090.36 686.562 3104.22 686.562 3104.22 722.862 3090.36 722.862 3090.36 737.052 3068.25 737.052 3068.25 781.602 3053.73 781.602 3053.73 795.792 3007.53 795.792 3007.53 781.602 2993.01 781.602 2993.01 737.052 2885.1 737.052 2885.1 722.862 2868.93 722.862 2868.93 613.302 2885.76 613.302 2885.76 594.162 2902.92 594.162 2902.92 574.692 2921.4 574.692 2921.4 555.882 2939.88 555.882 2939.88 537.402 2958.69 537.402 2958.69 519.912 2978.49 519.912Z" stroke="#224F01" stroke-width="7" stroke-linejoin="round" stroke-miterlimit="10" fill="#B0FE76" fill-rule="evenodd"/><text fill="#000000" fill-opacity="0" font-family="Arial,Arial_MSFontService,sans-serif" font-size="292.71" x="2868.93" y="759.203">4</text><path d="M3142.99 706.692 3188.53 706.692 3188.53 718.902 3201.73 718.902 3201.73 744.312 3391.81 744.312 3391.81 757.512 3405.01 757.512 3405.01 786.552 3391.81 786.552 3391.81 799.752 3142.99 799.752 3142.99 786.552 3129.79 786.552 3129.79 718.902 3142.99 718.902ZM3208.99 544.992 3208.99 554.892 3197.77 554.892 3197.77 568.422 3208.99 568.422 3208.99 577.992 3320.53 577.992 3320.53 568.422 3331.75 568.422 3331.75 554.892 3320.53 554.892 3320.53 544.992ZM3164.77 499.122 3364.09 499.122 3364.09 509.022 3377.95 509.022 3377.95 519.582 3389.83 519.582 3389.83 530.802 3401.05 530.802 3401.05 592.512 3389.17 592.512 3389.17 603.732 3376.3 603.732 3376.3 613.962 3361.78 613.962 3361.78 624.192 3301.39 624.192 3301.39 641.022 3402.04 641.022 3402.04 652.242 3413.26 652.242 3413.26 684.252 3402.04 684.252 3402.04 695.472 3127.48 695.472 3127.48 684.252 3116.26 684.252 3116.26 652.242 3127.48 652.242 3127.48 641.022 3228.13 641.022 3228.13 624.192 3167.74 624.192 3167.74 613.962 3153.22 613.962 3153.22 603.732 3140.35 603.732 3140.35 592.512 3128.47 592.512 3128.47 530.802 3139.69 530.802 3139.69 519.582 3151.57 519.582 3151.57 509.022 3164.77 509.022Z" stroke="#224F01" stroke-width="7" stroke-linejoin="round" stroke-miterlimit="10" fill="#B0FE76" fill-rule="evenodd"/><text fill="#000000" fill-opacity="0" font-family="Arial,Arial_MSFontService,sans-serif" font-size="300.63" x="3116.26" y="762.174">온</text><path d="M3555.07 688.212 3799.6 688.212 3799.6 701.412 3812.8 701.412 3812.8 786.552 3799.6 786.552 3799.6 799.752 3752.08 799.752 3752.08 786.552 3738.88 786.552 3738.88 746.952 3555.07 746.952 3555.07 733.752 3541.87 733.752 3541.87 701.412 3555.07 701.412ZM3611.83 553.242 3611.83 562.812 3600.94 562.812 3600.94 606.372 3611.83 606.372 3611.83 615.612 3636.91 615.612 3636.91 606.372 3648.13 606.372 3648.13 562.812 3636.91 562.812 3636.91 553.242ZM3754.06 499.122 3800.26 499.122 3800.26 510.342 3812.8 510.342 3812.8 531.132 3834.58 531.132 3834.58 541.032 3842.17 541.032 3842.17 569.082 3834.58 569.082 3834.58 579.312 3812.8 579.312 3812.8 589.212 3834.58 589.212 3834.58 599.442 3842.17 599.442 3842.17 627.492 3834.58 627.492 3834.58 637.392 3812.8 637.392 3812.8 660.162 3800.26 660.162 3800.26 671.382 3754.06 671.382 3754.06 658.182 3740.86 658.182 3740.86 512.322 3754.06 512.322ZM3577.18 499.122 3672.22 499.122 3672.22 511.332 3686.41 511.332 3686.41 524.202 3699.94 524.202 3699.94 537.402 3713.47 537.402 3713.47 631.452 3699.94 631.452 3699.94 644.652 3686.41 644.652 3686.41 657.522 3672.22 657.522 3672.22 669.732 3577.18 669.732 3577.18 657.522 3562.66 657.522 3562.66 644.652 3549.13 644.652 3549.13 631.452 3535.6 631.452 3535.6 537.402 3549.13 537.402 3549.13 524.202 3562.66 524.202 3562.66 511.332 3577.18 511.332Z" stroke="#224F01" stroke-width="7" stroke-linejoin="round" stroke-miterlimit="10" fill="#B0FE76" fill-rule="evenodd"/><text fill="#000000" fill-opacity="0" font-family="Arial,Arial_MSFontService,sans-serif" font-size="300.63" x="3535.6" y="762.174">약</text><path d="M3035.4 917.012 3035.4 927.902 3024.84 927.902 3024.84 1073.1 3035.4 1073.1 3035.4 1083.99 3058.83 1083.99 3058.83 1073.1 3070.05 1073.1 3070.05 927.902 3058.83 927.902 3058.83 917.012ZM3329.34 916.022 3329.34 1084.98 3345.18 1084.98 3345.18 916.022ZM3450.45 856.622 3484.44 856.622 3484.44 869.822 3496.32 869.822 3496.32 965.192 3512.82 965.192 3512.82 869.822 3525.03 869.822 3525.03 856.622 3559.35 856.622 3559.35 869.822 3571.56 869.822 3571.56 1144.05 3559.35 1144.05 3559.35 1157.25 3525.03 1157.25 3525.03 1144.05 3512.82 1144.05 3512.82 1028.55 3496.32 1028.55 3496.32 1144.05 3484.44 1144.05 3484.44 1157.25 3450.45 1157.25 3450.45 1144.05 3438.24 1144.05 3438.24 869.822 3450.45 869.822ZM3288.09 856.622 3415.47 856.622 3415.47 869.492 3426.69 869.492 3426.69 902.492 3415.47 902.492 3415.47 916.022 3399.3 916.022 3399.3 1084.98 3419.43 1084.98 3419.43 1098.18 3430.65 1098.18 3430.65 1131.18 3419.43 1131.18 3419.43 1144.38 3288.09 1144.38 3288.09 1131.18 3274.56 1131.18 3274.56 869.822 3288.09 869.822ZM2997.45 855.302 3097.77 855.302 3097.77 869.492 3111.3 869.492 3111.3 883.352 3124.83 883.352 3124.83 897.872 3139.02 897.872 3139.02 965.192 3169.38 965.192 3169.38 869.822 3182.58 869.822 3182.58 856.622 3229.11 856.622 3229.11 869.822 3242.31 869.822 3242.31 1144.05 3229.11 1144.05 3229.11 1157.25 3182.58 1157.25 3182.58 1144.05 3169.38 1144.05 3169.38 1028.55 3139.02 1028.55 3139.02 1103.13 3124.83 1103.13 3124.83 1117.65 3111.3 1117.65 3111.3 1131.51 3097.77 1131.51 3097.77 1145.7 2997.45 1145.7 2997.45 1131.51 2983.26 1131.51 2983.26 1117.65 2969.73 1117.65 2969.73 1103.13 2955.87 1103.13 2955.87 897.872 2969.73 897.872 2969.73 883.352 2983.26 883.352 2983.26 869.492 2997.45 869.492Z" stroke="#363635" stroke-width="7" stroke-linejoin="round" stroke-miterlimit="10" fill="#FFFFFF" fill-rule="evenodd"/><text fill="#000000" fill-opacity="0" font-family="Arial,Arial_MSFontService,sans-serif" font-size="301.95" x="2955.87" y="1119.51">어때</text><path d="M3684.75 1075.74 3731.29 1088.21 3728.21 1099.68 3740 1102.84 3727.19 1150.66 3715.4 1147.5 3712.32 1158.97 3665.79 1146.5 3668.86 1135.03 3657.39 1131.95 3670.2 1084.14 3681.67 1087.21ZM3712.68 847.831 3818.82 876.273 3816.6 884.561 3828.08 887.635 3825.34 897.836 3837.45 901.081 3834.12 913.513 3846.87 916.929 3819.97 1017.34 3806.58 1013.75 3803.51 1025.22 3790.76 1021.81 3787.85 1032.65 3775.42 1029.32 3772.69 1039.52 3757.07 1035.33 3751.35 1056.69 3739.87 1053.61 3736.8 1065.09 3690.9 1052.79 3693.97 1041.31 3682.5 1038.24 3698.3 979.269 3710.73 982.6 3713.89 970.806 3748 979.944 3750.9 969.107 3761.74 972.011 3771.64 935.035 3760.81 932.131 3763.11 923.525 3735.06 916.009 3732.76 924.615 3723.51 922.138 3719.07 938.713 3707.6 935.639 3704.52 947.114 3662.45 935.84 3665.52 924.365 3654.04 921.29 3668.05 869.014 3680.8 872.43 3684.13 859.999 3696.25 863.244 3698.98 853.044 3710.45 856.119Z" stroke="#363635" stroke-width="7" stroke-linejoin="round" stroke-miterlimit="10" fill="#595A4A" fill-rule="evenodd"/><text fill="#000000" fill-opacity="0" font-family="Arial,Arial_MSFontService,sans-serif" font-size="311.141" x="3654.04" y="1120.08">?</text><text font-family="NanumSquare Neo Bold,NanumSquare Neo Bold_MSFontService,sans-serif" font-weight="700" font-size="64" transform="matrix(1 0 0 1 3101.48 1254)">의약품</text><text font-family="NanumSquare Neo Bold,NanumSquare Neo Bold_MSFontService,sans-serif" font-weight="700" font-size="64" transform="matrix(1 0 0 1 3299.14 1254)">간편</text><text font-family="NanumSquare Neo Bold,NanumSquare Neo Bold_MSFontService,sans-serif" font-weight="700" font-size="64" transform="matrix(1 0 0 1 3436.07 1254)">검색</text><text font-family="NanumSquare Neo Bold,NanumSquare Neo Bold_MSFontService,sans-serif" font-weight="700" font-size="64" transform="matrix(1 0 0 1 3572.99 1254)">서비스</text></g></svg>