<svg width="840" height="796" xmlns="http://www.w3.org/2000/svg" xmlns:xlink="http://www.w3.org/1999/xlink" xml:space="preserve" overflow="hidden"><g transform="translate(-197 -2143)"><path d="M990.745 2213.37 990.745 2213.37C1055.53 2291.13 1045.01 2406.68 967.254 2471.46L707.182 2688.13 472.59 2406.56 732.662 2189.88C810.416 2125.1 925.964 2135.62 990.745 2213.37Z" stroke="#2CAD66" stroke-width="6.875" stroke-miterlimit="8" fill="#FFFFFF" fill-rule="evenodd"/><path d="M773.181 2251.48 773.181 2251.48C782.644 2262.84 781.108 2279.72 769.749 2289.18L566.759 2458.3 532.491 2417.17 735.481 2248.05C746.839 2238.59 763.718 2240.12 773.181 2251.48Z" fill="#8FBB99" fill-rule="evenodd"/><path d="M251.502 2828.29 251.502 2828.29C186.721 2750.53 197.239 2634.99 274.993 2570.2L535.065 2353.53 769.656 2635.1 509.585 2851.78C431.831 2916.56 316.283 2906.04 251.502 2828.29Z" stroke="#2CAD66" stroke-width="6.875" stroke-miterlimit="8" fill="#FFFFFF" fill-rule="evenodd"/><path d="M318.363 2630.41 318.363 2630.41C308.9 2619.06 310.436 2602.18 321.794 2592.71L524.784 2423.59 559.053 2464.72 356.063 2633.85C344.705 2643.31 327.826 2641.77 318.363 2630.41Z" fill="#81E979" fill-rule="evenodd"/><path d="M934.15 2881.45 934.15 2881.45C862.588 2953.01 746.562 2953.01 675 2881.45L435.641 2642.09 694.79 2382.94 934.15 2622.3C1005.71 2693.86 1005.71 2809.88 934.15 2881.45Z" stroke="#2CAD66" stroke-width="6.875" stroke-miterlimit="8" fill="#FFFFFF" fill-rule="evenodd"/><path d="M875.405 2669.41 875.405 2669.41C864.951 2679.86 848.003 2679.86 837.549 2669.41L650.725 2482.58 688.58 2444.73 875.405 2631.55C885.859 2642 885.859 2658.95 875.405 2669.41Z" fill="#8FBB99" fill-rule="evenodd"/><path d="M254.866 2202.16 254.866 2202.16C326.428 2130.6 442.454 2130.6 514.016 2202.16L753.375 2441.52 494.226 2700.67 254.866 2461.31C183.304 2389.75 183.304 2273.72 254.866 2202.16Z" stroke="#2CAD66" stroke-width="6.875" stroke-miterlimit="8" fill="#FFFFFF" fill-rule="evenodd"/><path d="M456.808 2250.81 456.808 2250.81C467.262 2240.35 484.21 2240.35 494.664 2250.81L681.488 2437.63 643.633 2475.49 456.808 2288.66C446.354 2278.21 446.354 2261.26 456.808 2250.81Z" fill="#81E979" fill-rule="evenodd"/></g></svg>