<svg width="1378" height="1063" xmlns="http://www.w3.org/2000/svg" xmlns:xlink="http://www.w3.org/1999/xlink" xml:space="preserve" overflow="hidden"><g transform="translate(-1548 -1413)"><path d="M2475.88 2322.43 2409.27 2383.23C2283.86 2497.7 2089.39 2488.84 1974.91 2363.43L1767.63 2136.36 2288.38 1660.99 2495.67 1888.07C2610.15 2013.48 2601.29 2207.95 2475.88 2322.43Z" stroke="#2CAD66" stroke-width="6.875" stroke-miterlimit="8" fill="#FFFFFF" fill-rule="evenodd"/><path d="M2451.67 2040.31 2451.67 2040.31C2430.48 2059.65 2397.63 2058.15 2378.29 2036.97L2182.11 1822.05 2258.83 1752.02 2455.01 1966.94C2474.35 1988.12 2472.85 2020.97 2451.67 2040.31Z" fill="#8FBB99" fill-rule="evenodd"/><path d="M1652.23 1552.7 1713.03 1497.19C1838.44 1382.71 2032.91 1391.57 2147.39 1516.98L2354.67 1744.06 1839.72 2214.13 1632.44 1987.05C1517.96 1861.64 1526.82 1667.18 1652.23 1552.7Z" stroke="#2CAD66" stroke-width="6.875" stroke-miterlimit="8" fill="#FFFFFF" fill-rule="evenodd"/><path d="M1971.83 1524.74 1971.83 1524.74C1992.6 1505.78 2024.81 1507.25 2043.77 1528.02L2240.64 1743.68 2165.42 1812.35 1968.55 1596.68C1949.59 1575.91 1951.06 1543.7 1971.83 1524.74Z" fill="#81E979" fill-rule="evenodd"/><path d="M2780.65 1537.17 2841.45 1603.77C2955.93 1729.18 2947.07 1923.65 2821.66 2038.13L2594.58 2245.41 2119.22 1724.66 2346.29 1517.38C2471.7 1402.9 2666.17 1411.76 2780.65 1537.17Z" stroke="#2CAD66" stroke-width="6.875" stroke-miterlimit="8" fill="#FFFFFF" fill-rule="evenodd"/><path d="M2498.53 1561.38 2498.53 1561.38C2517.87 1582.56 2516.38 1615.42 2495.19 1634.75L2280.27 1830.94 2210.24 1754.22 2425.16 1558.04C2446.34 1538.7 2479.19 1540.19 2498.53 1561.38Z" fill="#8FBB99" fill-rule="evenodd"/><path d="M1995.86 2371.92 1940.35 2311.12C1825.87 2185.71 1834.73 1991.24 1960.14 1876.76L2187.22 1669.48 2657.29 2184.43 2430.21 2391.71C2304.8 2506.19 2110.34 2497.33 1995.86 2371.92Z" stroke="#2CAD66" stroke-width="6.875" stroke-miterlimit="8" fill="#FFFFFF" fill-rule="evenodd"/><path d="M1982.96 2041.22 1982.96 2041.22C1964 2020.44 1965.47 1988.23 1986.24 1969.27L2201.9 1772.4 2270.57 1847.63 2054.91 2044.49C2034.13 2063.46 2001.92 2061.99 1982.96 2041.22Z" fill="#81E979" fill-rule="evenodd"/></g></svg>